<?xml version="1.0" encoding="iso-8859-1"?>
<!-- Generator: Adobe Illustrator 19.0.0, SVG Export Plug-In . SVG Version: 6.00 Build 0)  -->
<svg version="1.1" id="Layer_1" xmlns="http://www.w3.org/2000/svg" xmlns:xlink="http://www.w3.org/1999/xlink" x="0px" y="0px"
	 viewBox="0 0 511.904 511.904" style="enable-background:new 0 0 511.904 511.904;" xml:space="preserve">
<g>
	<g>
		<path d="M511.856,245.003c0-0.235-0.064-0.427-0.085-0.661c-0.043-0.405-0.192-0.725-0.256-1.109
			c-0.021-0.128-0.064-0.256-0.085-0.384c-0.149-0.64-0.192-1.301-0.448-1.899c-0.235-0.555-0.661-0.981-1.003-1.493
			c-0.192-0.277-0.341-0.576-0.555-0.832c-0.128-0.171-0.107-0.405-0.256-0.555L295.835,3.403c-0.512-0.555-1.152-0.917-1.749-1.344
			c-0.32-0.235-0.576-0.533-0.917-0.725c-0.064-0.043-0.085-0.085-0.149-0.128c-0.021,0-0.043,0-0.043-0.021
			c-0.747-0.384-1.557-0.576-2.347-0.768c-0.491-0.128-0.939-0.341-1.429-0.384c-0.619-0.085-1.195,0.021-1.792,0.064
			c-0.597,0.021-1.195-0.021-1.771,0.107c-0.107,0.021-0.213-0.021-0.341,0.021c-0.064,0.021-0.107,0.064-0.171,0.085
			c-0.576,0.149-1.067,0.491-1.6,0.725c-0.384,0.171-0.811,0.235-1.195,0.469L4.997,172.171c-0.128,0.085-0.171,0.256-0.299,0.341
			c-1.643,1.109-3.115,2.539-3.968,4.523s-0.853,4.032-0.512,5.995c0.043,0.213-0.107,0.405-0.043,0.619l64,277.333
			c0.043,0.213,0.256,0.32,0.299,0.533c0.128,0.448,0.149,0.917,0.341,1.365c0.171,0.405,0.533,0.725,0.747,1.109
			c0.491,0.811,0.96,1.621,1.664,2.283c0.021,0.021,0.043,0.064,0.064,0.085c0.043,0.043,0.085,0.064,0.128,0.107
			c0.64,0.576,1.387,0.917,2.091,1.301c0.384,0.213,0.661,0.533,1.067,0.704c0.021,0,0.043,0,0.085,0.021
			c0.555,0.213,1.131,0.235,1.707,0.341c0.235,0.043,0.384,0.256,0.619,0.299l288,42.667c0.491,0.064,1.024,0.107,1.515,0.107
			c0,0,0,0,0.021,0s0,0,0.021,0c0,0,0,0,0.021,0c0.341,0,0.704-0.021,1.045-0.064c0.277-0.021,0.512-0.192,0.789-0.235
			c0.875-0.149,1.707-0.405,2.539-0.789c0.277-0.128,0.597-0.192,0.875-0.363c0.213-0.107,0.341-0.299,0.533-0.427
			c0.256-0.171,0.555-0.235,0.811-0.448c0.299-0.235,0.448-0.576,0.704-0.832c0.533-0.512,1.003-1.045,1.408-1.664
			c0.149-0.235,0.405-0.405,0.533-0.64c0.021-0.043,0.085-0.064,0.107-0.107l138.667-256c0.064-0.128,0.021-0.277,0.085-0.405
			c0.149-0.277,0.299-0.533,0.427-0.832c0.064-0.064,0.107-0.064,0.107-0.107c0.171-0.469,0.128-0.96,0.235-1.429
			c0.171-0.768,0.469-1.493,0.469-2.325C511.899,245.152,511.856,245.088,511.856,245.003z M463.643,219.765l-124.096-46.549
			l-31.04-124.117L463.643,219.765z M442.416,234.571h-95.808l-3.733-37.333L442.416,234.571z M162.949,266.272l34.453,43.499
			l-91.499,99.136L162.949,266.272z M155.184,231.606l-92.651-39.701h114.304L155.184,231.606z M181.957,255.904h65.173
			l-35.093,38.016L181.957,255.904z M177.861,234.571l23.275-42.667h105.067l-39.381,42.667H177.861z M322.331,205.877l2.88,28.693
			h-29.355L322.331,205.877z M284.165,39.669l32.725,130.901H212.763L284.165,39.669z M259.355,40.672l-70.869,129.899H48.283
			L259.355,40.672z M25.691,199.307l120.427,51.627L77.296,423.008L25.691,199.307z M96.091,450.976L210.8,326.71l126.677,160.021
			L96.091,450.976z M225.456,310.838l50.709-54.933h51.179l21.013,210.197L225.456,310.838z M369.712,465.611l-20.971-209.707
			h134.571L369.712,465.611z"/>
	</g>
</g>
<g>
</g>
<g>
</g>
<g>
</g>
<g>
</g>
<g>
</g>
<g>
</g>
<g>
</g>
<g>
</g>
<g>
</g>
<g>
</g>
<g>
</g>
<g>
</g>
<g>
</g>
<g>
</g>
<g>
</g>
</svg>
